<svg width="100" height="100" viewBox="0 0 100 100" fill="none" xmlns="http://www.w3.org/2000/svg">
<g clip-path="url(#clip0_1_3)">
<rect width="100" height="100" fill="white"/>
<path d="M5.7 30V28.7C5.7 26.9 5.9 25 6.2 22.45C6.75 17.9 7 15.85 7 14.6C7 13.3 7 11.85 6.15 10.45C6.1 10.35 6.1 10.3 6.1 10.2C6.1 10.05 6.2 9.95 6.4 9.95C6.5 9.95 6.55 9.95 6.7 10.05C9.2 12.2 11 14.85 11 17.1C11 18.35 10.95 18.55 10.7 19.9C10.25 22.15 10.1 24.6 10.1 25.4C10.1 25.95 10.25 26.2 10.5 26.2C10.85 26.2 11.4 25.7 12.25 24.75C14.35 22.45 16.35 20.4 18.3 18.75C18.85 15.2 19.65 12.3 20.9 10C22.5 6.95 24.15 5.2 26.45 5.2C27.75 5.2 29.8 6.1 31.15 8.2C31.7 9.05 32.2 10.15 32.65 11.55C32.75 11.55 32.9 11.55 33.05 11.55C39.9 11.55 45.05 16.45 45.05 23.85C45 26.1 44.75 28.3 43.9 30.4C42.9 32.8 41.15 34.75 38.95 36.1C37.05 37.2 34.6 38.05 30.55 38.2C29.55 39.85 28.3 41.2 26.95 42.3C24.3 44.45 21.2 46.05 18.7 46.65C18.5 46.7 18.45 46.7 18.3 46.7C18.1 46.7 18 46.6 18 46.45C18 46.35 18.05 46.25 18.25 46.15C21.2 44.55 23.95 41.8 25.9 37.6C20.05 35.45 18.45 29 18.05 23.3C15.9 25.7 14.15 28.6 13 30.65C12.55 31.45 12.35 32.35 12.35 33.05C12.45 34.1 12.45 34.85 12.45 35.25C12.45 36.7 11.55 37.55 10.45 37.55C9.05 37.55 8.25 36.95 7.45 35.65C6.8 34.6 6.1 32.75 5.7 30ZM20.3 21.15C20.6 26.45 21.55 32.5 27.35 33.75C28.2 30.75 28.7 27.25 28.7 23.2C28.7 19.45 28.6 16.7 28.45 14.65C25.3 16.1 22.65 18.65 20.3 21.15ZM20.55 16.85C22.9 15.05 25.45 13.45 28.25 12.4C28.1 10.9 27.9 9.9 27.75 9.15C27.35 7.25 26.65 6.5 26 6.5C25.05 6.5 23.95 7.05 22.65 9.15C21.6 10.9 20.95 13.9 20.55 16.85ZM32.5 33.85C37 32.9 40.3 28.5 40.3 22.45C40.3 16.95 37.85 13.4 33.75 13.4C33.55 13.4 33.45 13.4 33.1 13.4C33.6 15.8 33.9 18.95 33.9 23.2C33.9 27.5 33.4 31 32.5 33.85ZM67.1 46.05C73.45 44.35 78.4 41.65 81.6 38.9C84.35 36.55 85.6 34.45 85.6 31.65C85.6 28.35 83.65 27 81.3 27C77.95 27 74.85 29.2 70.2 34.15C69.15 35.25 68.25 36.3 67.85 37C67.25 37.95 66.75 38.15 65.95 38.15C65.25 38.15 64.15 37.75 62.95 35.95C62.15 34.75 61.5 33.35 61.5 32.15C61.5 31.6 61.65 30.9 61.75 30.1C62.1 26.95 62.4 24.05 62.9 21.65C63.45 19.2 64.2 17 65.45 15.1C66.3 13.9 67.55 12.65 68.7 11.5C68.9 11.3 68.95 11.15 68.95 10.95C68.95 10.7 68.85 10.5 68.55 10.3C67.1 9.25 66.15 7.85 66.05 4.6C66.05 4.25 66.15 4.1 66.3 4.1C66.45 4.1 66.6 4.2 66.75 4.4C67.55 5.35 69.45 6.3 73.7 7.65C76.95 8.7 78.8 10.3 78.8 12.4C78.8 13.85 77.65 14.65 76.35 14.65C75.2 14.65 74.35 14.3 73.5 14.1C72.35 13.8 71.45 13.75 70.65 13.75C69.6 13.75 68.25 14.05 67.3 14.65C66.7 15 66.4 15.5 66.4 16.45C66.4 17.1 66.45 17.5 66.6 18.25C66.8 19.25 66.9 19.6 66.9 20.25C66.9 20.8 66.9 21.5 66.8 22C66.6 23.3 66.45 24.65 66.3 25.7C66.2 26.8 66.15 27.7 66.15 28.4C66.15 28.8 66.15 29.15 66.2 29.6C66.25 29.95 66.45 30.25 66.85 30.25C67.1 30.25 67.75 30.1 68.6 29.65C74.65 26.35 78.25 25 81.7 25C86.9 25 91.75 28.25 91.75 33.15C91.75 37.25 89.05 40.1 85.25 42.1C80.55 44.5 74.15 46.05 67.15 46.6C66.95 46.6 66.85 46.45 66.85 46.35C66.85 46.2 66.9 46.1 67.1 46.05ZM5.7 80V78.7C5.7 76.9 5.9 75 6.2 72.45C6.75 67.9 7 65.85 7 64.6C7 63.3 7 61.85 6.15 60.45C6.1 60.35 6.1 60.3 6.1 60.2C6.1 60.05 6.2 59.95 6.4 59.95C6.5 59.95 6.55 59.95 6.7 60.05C9.2 62.2 11 64.85 11 67.1C11 68.35 10.95 68.55 10.7 69.9C10.25 72.15 10.1 74.6 10.1 75.4C10.1 75.95 10.25 76.2 10.5 76.2C10.85 76.2 11.4 75.7 12.25 74.75C14.35 72.45 16.35 70.4 18.3 68.75C18.85 65.2 19.65 62.3 20.9 60C22.5 56.95 24.15 55.2 26.45 55.2C27.75 55.2 29.8 56.1 31.15 58.2C31.7 59.05 32.2 60.15 32.65 61.55C32.75 61.55 32.9 61.55 33.05 61.55C39.9 61.55 45.05 66.45 45.05 73.85C45 76.1 44.75 78.3 43.9 80.4C42.9 82.8 41.15 84.75 38.95 86.1C37.05 87.2 34.6 88.05 30.55 88.2C29.55 89.85 28.3 91.2 26.95 92.3C24.3 94.45 21.2 96.05 18.7 96.65C18.5 96.7 18.45 96.7 18.3 96.7C18.1 96.7 18 96.6 18 96.45C18 96.35 18.05 96.25 18.25 96.15C21.2 94.55 23.95 91.8 25.9 87.6C20.05 85.45 18.45 79 18.05 73.3C15.9 75.7 14.15 78.6 13 80.65C12.55 81.45 12.35 82.35 12.35 83.05C12.45 84.1 12.45 84.85 12.45 85.25C12.45 86.7 11.55 87.55 10.45 87.55C9.05 87.55 8.25 86.95 7.45 85.65C6.8 84.6 6.1 82.75 5.7 80ZM20.3 71.15C20.6 76.45 21.55 82.5 27.35 83.75C28.2 80.75 28.7 77.25 28.7 73.2C28.7 69.45 28.6 66.7 28.45 64.65C25.3 66.1 22.65 68.65 20.3 71.15ZM20.55 66.85C22.9 65.05 25.45 63.45 28.25 62.4C28.1 60.9 27.9 59.9 27.75 59.15C27.35 57.25 26.65 56.5 26 56.5C25.05 56.5 23.95 57.05 22.65 59.15C21.6 60.9 20.95 63.9 20.55 66.85ZM32.5 83.85C37 82.9 40.3 78.5 40.3 72.45C40.3 66.95 37.85 63.4 33.75 63.4C33.55 63.4 33.45 63.4 33.1 63.4C33.6 65.8 33.9 68.95 33.9 73.2C33.9 77.5 33.4 81 32.5 83.85ZM67.1 96.05C73.45 94.35 78.4 91.65 81.6 88.9C84.35 86.55 85.6 84.45 85.6 81.65C85.6 78.35 83.65 77 81.3 77C77.95 77 74.85 79.2 70.2 84.15C69.15 85.25 68.25 86.3 67.85 87C67.25 87.95 66.75 88.15 65.95 88.15C65.25 88.15 64.15 87.75 62.95 85.95C62.15 84.75 61.5 83.35 61.5 82.15C61.5 81.6 61.65 80.9 61.75 80.1C62.1 76.95 62.4 74.05 62.9 71.65C63.45 69.2 64.2 67 65.45 65.1C66.3 63.9 67.55 62.65 68.7 61.5C68.9 61.3 68.95 61.15 68.95 60.95C68.95 60.7 68.85 60.5 68.55 60.3C67.1 59.25 66.15 57.85 66.05 54.6C66.05 54.25 66.15 54.1 66.3 54.1C66.45 54.1 66.6 54.2 66.75 54.4C67.55 55.35 69.45 56.3 73.7 57.65C76.95 58.7 78.8 60.3 78.8 62.4C78.8 63.85 77.65 64.65 76.35 64.65C75.2 64.65 74.35 64.3 73.5 64.1C72.35 63.8 71.45 63.75 70.65 63.75C69.6 63.75 68.25 64.05 67.3 64.65C66.7 65 66.4 65.5 66.4 66.45C66.4 67.1 66.45 67.5 66.6 68.25C66.8 69.25 66.9 69.6 66.9 70.25C66.9 70.8 66.9 71.5 66.8 72C66.6 73.3 66.45 74.65 66.3 75.7C66.2 76.8 66.15 77.7 66.15 78.4C66.15 78.8 66.15 79.15 66.2 79.6C66.25 79.95 66.45 80.25 66.85 80.25C67.1 80.25 67.75 80.1 68.6 79.65C74.65 76.35 78.25 75 81.7 75C86.9 75 91.75 78.25 91.75 83.15C91.75 87.25 89.05 90.1 85.25 92.1C80.55 94.5 74.15 96.05 67.15 96.6C66.95 96.6 66.85 96.45 66.85 96.35C66.85 96.2 66.9 96.1 67.1 96.05Z" fill="black"/>
</g>
<defs>
<clipPath id="clip0_1_3">
<rect width="100" height="100" fill="white"/>
</clipPath>
</defs>
</svg>
